<?xml version="1.0" encoding="utf-8"?>
<!-- Generator: Adobe Illustrator 15.1.0, SVG Export Plug-In . SVG Version: 6.00 Build 0)  -->
<!DOCTYPE svg PUBLIC "-//W3C//DTD SVG 1.1//EN" "http://www.w3.org/Graphics/SVG/1.1/DTD/svg11.dtd">
<svg version="1.1" id="Layer_1" xmlns:ev="http://www.w3.org/2001/xml-events"
	 xmlns="http://www.w3.org/2000/svg" xmlns:xlink="http://www.w3.org/1999/xlink" x="0px" y="0px" width="70px" height="47px"
	 viewBox="0 0 70 47" enable-background="new 0 0 70 47" xml:space="preserve">
<path fill="#ED5565" d="M6.364,0h57.272C67.15,0,70,2.869,70,6.409v34.182C70,44.131,67.15,47,63.637,47H6.364
	C2.849,47,0,44.131,0,40.591V6.409C0,2.869,2.849,0,6.364,0z"/>
<path fill="#FFFFFF" d="M46.027,29.289c0.477-0.107,0.851,0.121,0.976,0.55c-0.36-0.043-0.692-0.171-0.928-0.043
	c-0.193,0.372-0.733,0.386-1.079,0.115c-0.527-0.015-1.551-0.029-1.786-0.029c0.347,0.216,0.761,0.472,0.97,0.601
	c0.816-0.172,1.26,0.158,1.203,0.772c0.194,0.313,0.18,0.759-0.055,0.958c-0.057-0.258-0.194-0.587-0.389-0.771
	c-0.498,0.1-0.857-0.072-1.01-0.645c-0.318-0.214-0.734-0.486-0.9-0.6c-0.166-0.115-0.299-0.246-0.678-0.072
	c-0.375,0.172-0.721,0.314-0.941,0.443c-0.125,0.5-0.596,0.529-0.9,0.301c-0.193,0.113-0.359,0.314-0.471,0.529
	c-0.18-0.33-0.083-0.772,0.263-0.888c0.125-0.386,0.568-0.514,0.886-0.329c0.264-0.113,0.638-0.3,0.804-0.371
	c-0.54-0.199-1.91-0.729-2.396-0.943c-0.457,0.357-0.969,0.701-1.343,0.601c-0.055-0.344-0.226-0.626-0.456-1.116
	c-0.367-0.778-0.824-1.508-1.197-1.959c-0.375-0.449-0.754-0.191-0.728,0.43c0.062,1.501,1.135,3.746,2.714,3.832
	c0.539,0.029,0.754,0.144,0.457,0.558c-0.277,0.386-1.136,0.437-1.613,0.071c-0.478-0.364-0.644-0.344-0.547,0.143
	c0.098,0.486,0.639,0.672,1.038,0.701c0.582,0.043,1.246,0.257,0.706,0.771c-0.54,0.516-1.426,0.229-2.076-0.543
	c-0.226-0.268-0.404-0.344-0.388,0.086c0.028,0.744,0.457,1.216,0.899,1.315c0.443,0.101,0.887,0.222,0.762,0.486
	c-0.207,0.442-0.9,0.515-1.287,0.301c-0.389-0.215-0.803-0.614-0.887-0.858c-0.082-0.242-0.252-0.104-0.208,0.229
	c0.097,0.715,0.583,0.701,0.583,1.287S35.555,36.359,35,37.003c-0.554-0.644-1.025-1.216-1.025-1.802s0.485-0.572,0.582-1.287
	c0.045-0.333-0.124-0.471-0.208-0.229c-0.083,0.244-0.498,0.644-0.886,0.858c-0.387,0.214-1.08,0.142-1.287-0.301
	c-0.125-0.265,0.318-0.386,0.761-0.486c0.443-0.1,0.872-0.571,0.9-1.315c0.016-0.43-0.162-0.354-0.388-0.086
	c-0.65,0.772-1.536,1.059-2.076,0.543c-0.54-0.515,0.124-0.729,0.706-0.771c0.401-0.029,0.941-0.215,1.038-0.701
	c0.097-0.486-0.069-0.507-0.547-0.143c-0.477,0.365-1.336,0.314-1.613-0.071c-0.297-0.414-0.082-0.528,0.457-0.558
	c1.579-0.086,2.651-2.331,2.714-3.832c0.026-0.621-0.353-0.879-0.727-0.43c-0.374,0.451-0.831,1.181-1.197,1.959
	c-0.231,0.49-0.402,0.772-0.457,1.116c-0.374,0.101-0.886-0.243-1.343-0.601c-0.485,0.214-1.855,0.744-2.395,0.943
	c0.166,0.071,0.54,0.258,0.803,0.371c0.318-0.185,0.761-0.057,0.886,0.329c0.346,0.115,0.443,0.558,0.263,0.888
	c-0.111-0.215-0.277-0.416-0.471-0.529c-0.305,0.229-0.775,0.199-0.9-0.301c-0.221-0.129-0.567-0.271-0.941-0.443
	c-0.38-0.174-0.512-0.043-0.679,0.072c-0.166,0.113-0.581,0.386-0.899,0.6c-0.153,0.572-0.513,0.744-1.011,0.645
	c-0.194,0.185-0.332,0.514-0.388,0.771c-0.235-0.199-0.249-0.645-0.055-0.958c-0.055-0.614,0.388-0.944,1.204-0.772
	c0.208-0.129,0.623-0.385,0.97-0.601c-0.236,0-1.26,0.015-1.786,0.029c-0.347,0.271-0.886,0.257-1.08-0.115
	c-0.236-0.128-0.568,0-0.928,0.043c0.125-0.429,0.499-0.657,0.976-0.55c0.291-0.279,0.665-0.279,1.059,0.128
	c0.416,0.043,0.997,0.086,1.786,0.108c-0.249-0.172-0.602-0.43-1.017-0.688c-0.374,0.129-0.769-0.021-0.893-0.32
	c-0.27-0.259-0.582-0.194-0.956-0.129c0.042-0.623,0.499-0.687,1.142-0.43c0.374-0.214,0.956,0,1.039,0.493
	c0.249,0.364,0.747,0.579,1.308,0.965c0.706-0.3,1.599-0.601,2.451-1.05c-0.187-0.194-0.374-0.43-0.582-0.645
	c1.384-0.715,2.437-1.457,2.907-3.002c0.157-0.514-0.124-0.4-0.249-0.072c-0.228,0.603-0.595,1.002-1.177,1.272
	c-0.412,0.193-0.65-0.286-0.346-0.571c0.305-0.287,0.582-0.772,0.596-1.358c0.009-0.415-0.448-0.361-0.527-0.143
	c-0.664,1.859-1.481,3.13-2.173,2.817c-0.692-0.315-0.366-0.729,0-0.915c0.706-0.357,1.108-1.443,1.149-2.002
	c0.042-0.558-0.291-0.543-0.512-0.114c-0.222,0.429-0.831,1.244-1.828,2.388c-0.996,1.144-2.381,1.401-3.142,0.715
	c-0.672-0.605-0.026-0.986,0.637-0.815c1.273,0.329,2.588-1.028,3.378-3.131c0.121-0.325-0.111-0.375-0.25-0.2
	c-1.772,2.245-3.253,2.445-4.097,1.688c-0.297-0.266-0.637-1.115,0.733-0.844c1.481,0.294,2.368-0.858,3.406-2.43
	c0.461-0.699,0.041-0.715-0.374-0.301c-0.415,0.415-1.038,0.901-1.73,1.33c-0.693,0.429-2.091,0.372-2.271-0.486
	s0.443-0.829,1.122-0.601c1.178,0.398,2.048-0.443,2.893-1.444c0.377-0.446,0.221-0.715-0.111-0.557
	c-0.332,0.157-1.121,0.543-1.633,0.829c-0.513,0.286-1.634,0.486-2.174-0.286s0.305-1.23,0.983-0.729
	c0.678,0.5,2.34,0.043,2.99-0.844c0.651-0.886-0.083-0.715-0.484-0.5c-1.018,0.543-2.284,0.6-3.378-0.215
	c-0.496-0.37-0.42-0.642-0.249-0.943c0.097-0.172,0.429-0.215,0.858,0.057c1.455,0.921,2.616,0.729,3.489-0.515
	c0.347-0.496-0.083-0.529-0.485-0.329c-1.695,0.845-3.433,0.315-3.945-0.944c-0.241-0.59,0.304-1.258,0.858-0.515
	c0.717,0.964,1.869,0.987,3.046,0.816c0.565-0.083,0.57-0.822-0.028-0.901c-1.287-0.172-3.323-1.044-3.932-2.116
	c-0.506-0.891,0.512-1.931,1.052-0.873c0.54,1.059,1.675,1.745,2.921,2.145c0.44,0.141,0.596,0.129,0.61-0.014
	c0.019-0.204,0.166-0.558,0.304-0.458c0.346,0.2,1.592,0.644,2.201,0.872c0.609,0.229,0.886,0.801,0.859,1.33
	c-0.028,0.529-0.166,1.459,0.733,1.459c1.44,0,0.838-2.402-0.013-3.129c-0.658-0.561-1.371-0.832-1.911-0.818
	c-0.54,0.015-1.184-0.214-1.246-0.719c-0.131-0.029-0.38-0.093-0.637-0.093c-0.193,0-0.56-0.207-0.74-0.372
	c-0.18-0.164-0.395-0.429-0.215-0.586c0.18-0.157,0.464,0.107,0.575,0.329c0.11,0.221,0.349,0.379,0.47,0.393
	c0.18,0.021,0.488,0.071,0.654,0.114s0.437,0,0.506-0.085c0.135-0.168-0.014-0.268-0.198-0.336c-0.21-0.078-0.432-0.054-0.498,0.085
	c-0.046,0.098-0.128,0.186-0.277,0.201c-0.166-0.958,0.734-0.916,1.482-0.873c0.443-0.729,1.592-0.228,2.381,0.158
	c0.374,0.085,1.01,0.043,1.329-0.1c0.318-0.143,0.304,0.028,0.194,0.185c-0.111,0.158-0.513,0.444-0.679,0.487
	s-0.111,0.128-0.055,0.2c0.175,0.226,0.567,0.443,0.747,0.472c0.181,0.028,0.236,0.114,0.139,0.186
	c-0.097,0.071-0.235,0.157-0.374,0.2c-0.138,0.043-0.125,0.1-0.042,0.214c0.172,0.236,0.624,0.472,0.776,0.443
	c0.152-0.028,0.166,0.058,0.11,0.129c-0.055,0.072-0.262,0.172-0.373,0.172c-0.111,0-0.121,0.021-0.028,0.143
	c0.1,0.131,0.326,0.416,0.526,0.356c0.27-0.08,0.338-0.011,0.255,0.107c-0.196,0.278-0.186,0.399,0.202,0.466
	c0.388-0.067,0.398-0.188,0.202-0.466c-0.083-0.118-0.015-0.187,0.255-0.107c0.2,0.06,0.426-0.225,0.525-0.356
	c0.094-0.122,0.084-0.143-0.027-0.143s-0.318-0.1-0.373-0.172c-0.057-0.071-0.042-0.157,0.109-0.129
	c0.152,0.029,0.604-0.207,0.776-0.443c0.083-0.114,0.097-0.171-0.042-0.214s-0.277-0.129-0.374-0.2
	c-0.097-0.072-0.04-0.158,0.14-0.186c0.18-0.029,0.572-0.246,0.746-0.472c0.057-0.072,0.111-0.157-0.055-0.2
	s-0.568-0.329-0.679-0.487c-0.11-0.157-0.124-0.328,0.194-0.185s0.955,0.185,1.328,0.1c0.789-0.386,1.939-0.887,2.383-0.158
	c0.746-0.043,1.646-0.085,1.48,0.873c-0.148-0.015-0.23-0.103-0.277-0.201c-0.065-0.139-0.287-0.163-0.498-0.085
	c-0.184,0.068-0.332,0.168-0.197,0.336c0.07,0.085,0.339,0.128,0.506,0.085c0.166-0.043,0.475-0.093,0.654-0.114
	c0.121-0.014,0.359-0.172,0.47-0.393c0.11-0.222,0.396-0.486,0.575-0.329c0.18,0.157-0.035,0.422-0.215,0.586
	c-0.181,0.165-0.547,0.372-0.74,0.372c-0.258,0-0.506,0.064-0.637,0.093c-0.062,0.505-0.707,0.734-1.246,0.719
	c-0.541-0.014-1.254,0.257-1.911,0.818c-0.851,0.727-1.453,3.129-0.013,3.129c0.898,0,0.76-0.93,0.732-1.459s0.25-1.101,0.859-1.33
	c0.609-0.228,1.854-0.672,2.201-0.872c0.138-0.1,0.285,0.254,0.304,0.458c0.014,0.143,0.17,0.155,0.61,0.014
	c1.246-0.4,2.381-1.086,2.92-2.145c0.541-1.058,1.559-0.018,1.053,0.873c-0.609,1.072-2.645,1.944-3.932,2.116
	c-0.599,0.079-0.594,0.818-0.029,0.901c1.178,0.171,2.33,0.148,3.047-0.816c0.554-0.743,1.099-0.075,0.857,0.515
	c-0.512,1.259-2.25,1.789-3.945,0.944c-0.401-0.2-0.831-0.167-0.484,0.329c0.873,1.244,2.034,1.436,3.489,0.515
	c0.429-0.272,0.761-0.229,0.858-0.057c0.17,0.301,0.248,0.573-0.25,0.943c-1.093,0.815-2.359,0.758-3.377,0.215
	c-0.401-0.215-1.136-0.386-0.484,0.5c0.65,0.887,2.312,1.344,2.99,0.844c0.678-0.501,1.522-0.043,0.982,0.729
	s-1.661,0.572-2.174,0.286c-0.512-0.286-1.301-0.672-1.633-0.829c-0.332-0.158-0.487,0.111-0.111,0.557
	c0.846,1.001,1.715,1.842,2.895,1.444c0.678-0.228,1.301-0.257,1.121,0.601c-0.181,0.858-1.578,0.915-2.271,0.486
	c-0.691-0.429-1.314-0.915-1.73-1.33c-0.414-0.414-0.834-0.398-0.373,0.301c1.037,1.572,1.924,2.724,3.405,2.43
	c1.37-0.271,1.03,0.579,0.734,0.844c-0.845,0.758-2.326,0.558-4.099-1.688c-0.139-0.175-0.371-0.125-0.25,0.2
	c0.791,2.103,2.105,3.46,3.379,3.131c0.662-0.171,1.309,0.21,0.637,0.815c-0.762,0.687-2.146,0.429-3.143-0.715
	s-1.605-1.959-1.828-2.388c-0.221-0.429-0.554-0.444-0.512,0.114c0.042,0.559,0.443,1.645,1.149,2.002
	c0.366,0.186,0.692,0.6,0,0.915c-0.692,0.313-1.509-0.958-2.173-2.817c-0.078-0.218-0.536-0.272-0.527,0.143
	c0.014,0.586,0.291,1.071,0.596,1.358c0.305,0.285,0.066,0.765-0.346,0.571c-0.582-0.271-0.949-0.67-1.177-1.272
	c-0.125-0.328-0.406-0.441-0.249,0.072c0.47,1.545,1.523,2.287,2.906,3.002c-0.207,0.215-0.395,0.45-0.58,0.645
	c0.851,0.449,1.744,0.75,2.449,1.05c0.562-0.386,1.06-0.601,1.309-0.965c0.083-0.493,0.665-0.707,1.039-0.493
	c0.643-0.257,1.1-0.193,1.142,0.43c-0.374-0.065-0.687-0.13-0.956,0.129c-0.124,0.299-0.519,0.449-0.893,0.32
	c-0.415,0.258-0.768,0.516-1.018,0.688c0.789-0.022,1.371-0.065,1.786-0.108C45.361,29.01,45.736,29.01,46.027,29.289z"/>
</svg>
