<?xml version="1.0" encoding="utf-8"?><!DOCTYPE svg PUBLIC "-//W3C//DTD SVG 1.1//EN" "http://www.w3.org/Graphics/SVG/1.1/DTD/svg11.dtd"><svg version="1.1" baseProfile="full" xmlns="http://www.w3.org/2000/svg" xmlns:xlink="http://www.w3.org/1999/xlink" xmlns:ev="http://www.w3.org/2001/xml-events"   height="47px"   width="70px" ><path fill="rgb( 59, 175, 218 )" d="M6.364,0 C6.364,0 63.636,0 63.636,0 C67.151,0 70,2.86900000000003 70,6.40899999999999 C70,6.40899999999999 70,40.591 70,40.591 C70,44.131 67.151,47 63.636,47 C63.636,47 6.364,47 6.364,47 C2.849,47 0,44.131 0,40.591 C0,40.591 0,6.40899999999999 0,6.40899999999999 C0,2.86900000000003 2.849,0 6.364,0 Z "/><path fill="rgb( 245, 247, 250 )" d="M0,17 C0,17 70,17 70,17 C70,17 70,31 70,31 C70,31 0,31 0,31 C0,31 0,17 0,17 Z "/><path fill="rgb( 67, 74, 84 )" d="M0,20 C0,20 70,20 70,20 C70,20 70,28 70,28 C70,28 0,28 0,28 C0,28 0,20 0,20 Z "/></svg>