<?xml version="1.0" encoding="utf-8"?>
<!-- Generator: Adobe Illustrator 15.1.0, SVG Export Plug-In . SVG Version: 6.00 Build 0)  -->
<!DOCTYPE svg PUBLIC "-//W3C//DTD SVG 1.1//EN" "http://www.w3.org/Graphics/SVG/1.1/DTD/svg11.dtd">
<svg version="1.1" id="Layer_1" xmlns:ev="http://www.w3.org/2001/xml-events"
	 xmlns="http://www.w3.org/2000/svg" xmlns:xlink="http://www.w3.org/1999/xlink" x="0px" y="0px" width="70px" height="47px"
	 viewBox="0 0 70 47" enable-background="new 0 0 70 47" xml:space="preserve">
<g>
	<g>
		<defs>
			<path id="SVGID_1_" d="M6.486,0h57.138c3.49,0,6.283,2.892,6.283,6.382v34.103c0,3.49-2.793,6.382-6.383,6.382H6.486
				c-3.59,0-6.382-2.892-6.382-6.382V6.382C0.104,2.892,2.896,0,6.486,0z"/>
		</defs>
		<clipPath id="SVGID_2_">
			<use xlink:href="#SVGID_1_"  overflow="visible"/>
		</clipPath>
		<g clip-path="url(#SVGID_2_)">
			<g>
				<defs>
					<path id="SVGID_3_" d="M6.486,0h57.138c3.49,0,6.283,2.892,6.283,6.382v34.103c0,3.49-2.793,6.382-6.383,6.382H6.486
						c-3.59,0-6.382-2.892-6.382-6.382V6.382C0.104,2.892,2.896,0,6.486,0z"/>
				</defs>
				<defs>
					<path id="SVGID_4_" d="M6.486,0h57.138c3.49,0,6.283,2.892,6.283,6.382v34.103c0,3.49-2.793,6.382-6.383,6.382H6.486
						c-3.59,0-6.382-2.892-6.382-6.382V6.382C0.104,2.892,2.896,0,6.486,0z"/>
				</defs>
				<defs>
					<path id="SVGID_5_" d="M6.486,0h57.138c3.49,0,6.283,2.892,6.283,6.382v34.103c0,3.49-2.793,6.382-6.383,6.382H6.486
						c-3.59,0-6.382-2.892-6.382-6.382V6.382C0.104,2.892,2.896,0,6.486,0z"/>
				</defs>
				<defs>
					<path id="SVGID_6_" d="M6.486,0h57.138c3.49,0,6.283,2.892,6.283,6.382v34.103c0,3.49-2.793,6.382-6.383,6.382H6.486
						c-3.59,0-6.382-2.892-6.382-6.382V6.382C0.104,2.892,2.896,0,6.486,0z"/>
				</defs>
				<defs>
					<path id="SVGID_7_" d="M6.486,0h57.138c3.49,0,6.283,2.892,6.283,6.382v34.103c0,3.49-2.793,6.382-6.383,6.382H6.486
						c-3.59,0-6.382-2.892-6.382-6.382V6.382C0.104,2.892,2.896,0,6.486,0z"/>
				</defs>
				<clipPath id="SVGID_8_">
					<use xlink:href="#SVGID_3_"  overflow="visible"/>
				</clipPath>
				<clipPath id="SVGID_9_" clip-path="url(#SVGID_8_)">
					<use xlink:href="#SVGID_4_"  overflow="visible"/>
				</clipPath>
				<clipPath id="SVGID_10_" clip-path="url(#SVGID_9_)">
					<use xlink:href="#SVGID_5_"  overflow="visible"/>
				</clipPath>
				<clipPath id="SVGID_11_" clip-path="url(#SVGID_10_)">
					<use xlink:href="#SVGID_6_"  overflow="visible"/>
				</clipPath>
				<clipPath id="SVGID_12_" clip-path="url(#SVGID_11_)">
					<use xlink:href="#SVGID_7_"  overflow="visible"/>
				</clipPath>
				<path clip-path="url(#SVGID_12_)" fill="#F5F7FA" d="M6.486,0h57.138c3.49,0,6.283,2.892,6.283,6.382v34.103
					c0,3.49-2.793,6.382-6.383,6.382H6.486c-3.59,0-6.382-2.892-6.382-6.382V6.382C0.104,2.892,2.896,0,6.486,0z"/>
				<path clip-path="url(#SVGID_12_)" fill="#ED5565" d="M0.104,0h69.803v5.983H0.104V0z"/>
				<path clip-path="url(#SVGID_12_)" fill="#ED5565" d="M0.104,11.966h69.803v5.983H0.104V11.966z"/>
				<path clip-path="url(#SVGID_12_)" fill="#ED5565" d="M0.104,22.935h69.803v5.983H0.104V22.935z"/>
				<path clip-path="url(#SVGID_12_)" fill="#ED5565" d="M0.104,33.904h69.803v5.983H0.104V33.904z"/>
			</g>
			<g>
				<defs>
					<path id="SVGID_13_" d="M6.486,0h57.138c3.49,0,6.283,2.892,6.283,6.382v34.103c0,3.49-2.793,6.382-6.383,6.382H6.486
						c-3.59,0-6.382-2.892-6.382-6.382V6.382C0.104,2.892,2.896,0,6.486,0z"/>
				</defs>
				<clipPath id="SVGID_14_">
					<use xlink:href="#SVGID_13_"  overflow="visible"/>
				</clipPath>
				<path clip-path="url(#SVGID_14_)" fill="#4758A9" d="M0.104,0H30.02v28.918H0.104V0z"/>
			</g>
		</g>
		<path clip-path="url(#SVGID_2_)" fill="#FFCE54" d="M23.937,14.659l1.097,0.798c0.3,0.299,0.3,0.499-0.199,0.499l-1.496,0.099
			c-0.102,0-0.102,0-0.201,0l0.3,1.396c0.1,0.399-0.099,0.598-0.499,0.3l-0.898-0.6l-0.399,1.198c-0.099,0.399-0.398,0.399-0.499,0
			l-0.499-1.396c0,0,0,0,0-0.099c0,0-0.099,0-0.099,0.099L19.25,17.85c-0.399,0.199-0.599,0.099-0.399-0.3l0.399-1.396l-0.997-0.1
			c-0.399,0-0.499-0.299-0.2-0.499l0.898-0.697l-0.1-0.1l-1.097-0.998c-0.299-0.299-0.2-0.499,0.2-0.499h1.595c0,0,0,0,0.099,0
			l-0.598-1.496c-0.099-0.398,0-0.499,0.399-0.299l1.196,0.797l0.399-1.396c0.099-0.399,0.399-0.399,0.499,0l0.499,1.595
			c0,0,0,0,0.1,0l1.297-0.898c0.298-0.199,0.499-0.099,0.499,0.3l-0.399,1.496l1.196,0.099c0.399,0,0.499,0.299,0.2,0.499
			L23.937,14.659z M20.048,8.476L20.048,8.476L20.048,8.476c-0.399-0.2-0.698-0.299-1.097-0.499
			c-3.59-1.097-7.379,0.797-8.576,4.388c-0.2,0.697-0.299,1.396-0.398,2.094c0,0.698,0.099,1.396,0.299,2.094
			c0.997,3.59,4.787,5.584,8.376,4.587c0.399-0.1,0.698-0.199,1.097-0.397l0,0l0,0c0.1,0,0.299,0,0.299,0.199
			c0,0.099,0,0.199-0.1,0.3c-0.898,0.697-1.895,1.196-2.991,1.595c-4.588,1.295-9.275-1.297-10.571-5.785
			c-0.2-0.997-0.299-1.894-0.299-2.691c0-0.798,0.2-1.695,0.399-2.493c1.496-4.487,6.381-6.881,10.869-5.484
			c1.098,0.398,2.095,0.897,2.893,1.595c0.099,0.099,0.099,0.2,0.099,0.299C20.347,8.377,20.147,8.476,20.048,8.476z"/>
	</g>
</g>
</svg>
