<?xml version="1.0" encoding="utf-8"?>
<!-- Generator: Adobe Illustrator 19.1.0, SVG Export Plug-In . SVG Version: 6.00 Build 0)  -->
<svg version="1.1" id="Layer_1" xmlns:ev="http://www.w3.org/2001/xml-events"
	 xmlns="http://www.w3.org/2000/svg" xmlns:xlink="http://www.w3.org/1999/xlink" x="0px" y="0px" viewBox="-262 397.9 70 47"
	 style="enable-background:new -262 397.9 70 47;" xml:space="preserve">
<style type="text/css">
	.st0{clip-path:url(#SVGID_2_);fill:#FFFFFF;}
	.st1{clip-path:url(#SVGID_4_);fill:#6EB8ED;}
	.st2{clip-path:url(#SVGID_6_);fill:#6EB8ED;}
</style>
<g>
	<g>
		<defs>
			<path id="SVGID_1_" d="M-255.6,397.9h57.3c3.5,0,6.4,2.9,6.4,6.4v34.2c0,3.5-2.9,6.4-6.4,6.4h-57.3c-3.5,0-6.4-2.9-6.4-6.4v-34.2
				C-262,400.8-259.2,397.9-255.6,397.9z"/>
		</defs>
		<clipPath id="SVGID_2_">
			<use xlink:href="#SVGID_1_"  style="overflow:visible;"/>
		</clipPath>
		<path class="st0" d="M-255.6,397.9h57.3c3.5,0,6.4,2.9,6.4,6.4v34.2c0,3.5-2.9,6.4-6.4,6.4h-57.3c-3.5,0-6.4-2.9-6.4-6.4v-34.2
			C-262,400.8-259.2,397.9-255.6,397.9z"/>
	</g>
	<g>
		<defs>
			<path id="SVGID_3_" d="M-255.6,397.9h57.3c3.5,0,6.4,2.9,6.4,6.4v34.2c0,3.5-2.9,6.4-6.4,6.4h-57.3c-3.5,0-6.4-2.9-6.4-6.4v-34.2
				C-262,400.8-259.2,397.9-255.6,397.9z"/>
		</defs>
		<clipPath id="SVGID_4_">
			<use xlink:href="#SVGID_3_"  style="overflow:visible;"/>
		</clipPath>
		<path class="st1" d="M-262,397.9h70v16h-70V397.9z"/>
	</g>
	<g>
		<defs>
			<path id="SVGID_5_" d="M-255.6,397.9h57.3c3.5,0,6.4,2.9,6.4,6.4v34.2c0,3.5-2.9,6.4-6.4,6.4h-57.3c-3.5,0-6.4-2.9-6.4-6.4v-34.2
				C-262,400.8-259.2,397.9-255.6,397.9z"/>
		</defs>
		<clipPath id="SVGID_6_">
			<use xlink:href="#SVGID_5_"  style="overflow:visible;"/>
		</clipPath>
		<path class="st2" d="M-262,428.9h70v16h-70V428.9z"/>
	</g>
</g>
<path d="M-262,416.5h70v9.8h-70V416.5z"/>
</svg>
