<?xml version="1.0" encoding="utf-8"?>
<!-- Generator: Adobe Illustrator 17.0.0, SVG Export Plug-In . SVG Version: 6.00 Build 0)  -->
<!DOCTYPE svg PUBLIC "-//W3C//DTD SVG 1.1//EN" "http://www.w3.org/Graphics/SVG/1.1/DTD/svg11.dtd">
<svg version="1.1" id="Layer_5" xmlns="http://www.w3.org/2000/svg" xmlns:xlink="http://www.w3.org/1999/xlink" x="0px" y="0px"
	 width="70px" height="47px" viewBox="0 0 70 47" enable-background="new 0 0 70 47" xml:space="preserve">
<g>
	<defs>
		<path id="SVGID_1_" d="M6.364,0h57.273C67.15,0,70,2.869,70,6.409v34.182C70,44.131,67.15,47,63.637,47H6.364
			C2.849,47,0,44.131,0,40.591V6.409C0,2.869,2.849,0,6.364,0z"/>
	</defs>
	<defs>
		<path id="SVGID_2_" d="M6.364,0h57.273C67.15,0,70,2.869,70,6.409v34.182C70,44.131,67.15,47,63.637,47H6.364
			C2.849,47,0,44.131,0,40.591V6.409C0,2.869,2.849,0,6.364,0z"/>
	</defs>
	<clipPath id="SVGID_3_">
		<use xlink:href="#SVGID_1_"  overflow="visible"/>
	</clipPath>
	<clipPath id="SVGID_4_" clip-path="url(#SVGID_3_)">
		<use xlink:href="#SVGID_2_"  overflow="visible"/>
	</clipPath>
	<g clip-path="url(#SVGID_4_)">
		
			<rect x="5.988" y="26.291" transform="matrix(-0.8326 0.5539 -0.5539 -0.8326 111.8334 52.4822)" fill="#00A3DD" width="83.995" height="33.699"/>
		
			<rect x="-19.893" y="-12.617" transform="matrix(-0.8326 0.5539 -0.5539 -0.8326 42.8539 -4.4852)" fill="#1EB53B" width="83.995" height="33.7"/>
		
			<rect x="-10.96" y="16.613" transform="matrix(-0.8326 0.5539 -0.5539 -0.8326 66.6627 15.1775)" fill="#FCDC04" width="83.995" height="2.099"/>
		<rect x="-7.082" y="17.39" transform="matrix(-0.8326 0.5539 -0.5539 -0.8326 76.9992 23.7141)" width="83.995" height="12.204"/>
		
			<rect x="-3.203" y="28.273" transform="matrix(-0.8326 0.5539 -0.5539 -0.8326 87.3357 32.2505)" fill="#FCDC04" width="83.995" height="2.099"/>
	</g>
</g>
</svg>
