<?xml version="1.0" encoding="utf-8"?>
<!-- Generator: Adobe Illustrator 17.0.0, SVG Export Plug-In . SVG Version: 6.00 Build 0)  -->
<!DOCTYPE svg PUBLIC "-//W3C//DTD SVG 1.1//EN" "http://www.w3.org/Graphics/SVG/1.1/DTD/svg11.dtd">
<svg version="1.1" id="Layer_5" xmlns="http://www.w3.org/2000/svg" xmlns:xlink="http://www.w3.org/1999/xlink" x="0px" y="0px"
	 width="70px" height="47px" viewBox="0 0 70 47" enable-background="new 0 0 70 47" xml:space="preserve">
<g>
	<defs>
		<path id="SVGID_1_" d="M6.364,0h57.273C67.15,0,70,2.869,70,6.409v34.182C70,44.131,67.15,47,63.637,47H6.364
			C2.849,47,0,44.131,0,40.591V6.409C0,2.869,2.849,0,6.364,0z"/>
	</defs>
	<defs>
		<path id="SVGID_2_" d="M6.364,0h57.273C67.15,0,70,2.869,70,6.409v34.182C70,44.131,67.15,47,63.637,47H6.364
			C2.849,47,0,44.131,0,40.591V6.409C0,2.869,2.849,0,6.364,0z"/>
	</defs>
	<clipPath id="SVGID_3_">
		<use xlink:href="#SVGID_1_"  overflow="visible"/>
	</clipPath>
	<clipPath id="SVGID_4_" clip-path="url(#SVGID_3_)">
		<use xlink:href="#SVGID_2_"  overflow="visible"/>
	</clipPath>
	<g clip-path="url(#SVGID_4_)">
		<rect y="-0.766" width="70" height="47.766"/>
		<rect y="7.195" fill="#FCDC04" width="70" height="7.961"/>
		<rect y="15.156" fill="#D90000" width="70" height="7.961"/>
		<rect y="31.078" fill="#FCDC04" width="70" height="7.961"/>
		<rect y="39.039" fill="#D90000" width="70" height="7.961"/>
		<ellipse fill="#FFFFFF" cx="35" cy="23.117" rx="7.272" ry="7.443"/>
		<g>
			<g>
				<path fill="#D90000" d="M33.462,18.135l-0.433-0.797c0.167-0.167,0.448-0.296,0.895-0.296c0,0.03-0.046,0.873-0.046,0.873
					L33.462,18.135z"/>
				<path d="M33.44,18.208l-0.478-0.88l0.029-0.029c0.204-0.204,0.527-0.312,0.934-0.312h0.055v0.055
					c0,0.031-0.041,0.789-0.046,0.876l-0.002,0.031L33.44,18.208z M33.097,17.349l0.387,0.713l0.342-0.18
					c0.015-0.274,0.035-0.644,0.041-0.784C33.537,17.106,33.272,17.193,33.097,17.349z"/>
			</g>
			<g>
				<path fill="#FCDC04" d="M33.879,17.922l0.061-0.88c0,0,0.895-0.053,1.381,0.531c0.008-0.008-0.478,0.683-0.478,0.683
					L33.879,17.922z"/>
				<path d="M34.864,18.321l-1.042-0.361l0.067-0.97l0.048-0.003c0,0,0.921-0.057,1.426,0.551l0.006,0.009
					c0.017,0.032,0.017,0.032-0.481,0.74L34.864,18.321z M33.937,17.885l0.886,0.307c0.156-0.221,0.364-0.518,0.431-0.615
					c-0.393-0.445-1.058-0.481-1.255-0.481c-0.003,0-0.005,0-0.008,0L33.937,17.885z"/>
			</g>
			<g>
				<path fill="#D90000" d="M34.858,18.249l0.44-0.683c0.296,0.311,0.417,0.531,0.463,0.865c0.008,0.008-0.698,0.174-0.698,0.167
					C35.063,18.59,34.866,18.256,34.858,18.249z"/>
				<path d="M35.064,18.653H35.01l-0.001-0.042c-0.029-0.054-0.181-0.31-0.194-0.329l-0.031-0.031l0.029-0.031l0.478-0.741
					l0.048,0.05c0.301,0.316,0.427,0.548,0.475,0.877l0.013,0.013l-0.014,0.034C35.787,18.511,35.071,18.653,35.064,18.653z
					 M34.922,18.25c0.042,0.068,0.127,0.207,0.17,0.288c0.116-0.024,0.486-0.112,0.609-0.145c-0.045-0.275-0.15-0.473-0.394-0.739
					L34.922,18.25z"/>
			</g>
			<path d="M35.818,25.06c0.013-0.01,0.06-0.034,0.206-0.034c0.33,0,0.866,0.119,0.871,0.121l0.149,0.033l-2.765-3.54
				c-0.025-0.131-0.231-1.29,0.257-1.847c0.639-0.529,0.621-1.101,0.591-1.185l-0.005-0.012c-0.074-0.423-0.525-0.764-1.014-0.764
				c-0.256,0-0.495,0.093-0.696,0.275c-0.291,0.351-0.216,0.647-0.159,0.774c-0.323,0.09-0.929,0.28-0.967,0.448
				c-0.006,0.026,0,0.053,0.017,0.073c0.034,0.042,0.108,0.06,0.249,0.06c0.25,0,0.639-0.059,0.801-0.086l-0.093,0.674
				c-0.137,0.129-1.102,1.075-1.137,2.213c-0.017,0.562,0.198,1.077,0.641,1.532l0.028,0.029l0.036-0.018
				c0.006-0.003,0.017-0.008,0.035-0.033c0.153,0.176,0.641,0.694,1.164,0.837c0.322,0.331,0.446,0.448,0.502,0.489
				c0.047,0.41,0.068,0.862,0.025,1.016c-0.187-0.029-0.741-0.051-1.144-0.051c-0.367,0-0.596,0.016-0.675,0.046
				c-0.022,0.007-0.053,0.012-0.088,0.019c-0.266,0.049-0.891,0.163-0.716,1.301l0.029,0.188l0.075-0.174
				c0.067-0.154,0.13-0.3,0.179-0.413c0.018,0.144,0.062,0.317,0.168,0.41l0.099,0.087l-0.008-0.131
				c-0.016-0.247,0.036-0.452,0.086-0.586c0.024,0.17,0.07,0.381,0.155,0.438c0.013,0.009,0.028,0.014,0.044,0.014
				c0.069,0,0.094-0.076,0.136-0.202c0.079-0.239,0.203-0.609,0.588-0.561c0.389,0.047,0.712,0.057,0.914,0.057
				c0.055,0,0.099-0.001,0.129-0.001c0.091,0.772,0.168,1.615,0.15,1.83c-0.091-0.016-0.204-0.024-0.329-0.024
				c-0.481,0-1.223,0.125-1.29,0.394l-0.018,0.072l0.074-0.004c0.118-0.007,0.232-0.011,0.339-0.011
				c0.225,0,0.382,0.015,0.475,0.029c-0.149,0.15-0.429,0.479-0.288,0.714l0.039,0.064l0.049-0.056
				c0.007-0.008,0.672-0.754,1.947-0.754c0.144,0,0.292,0.01,0.441,0.029l0.113,0.014l-0.06-0.097
				c-0.209-0.34-0.767-0.377-0.997-0.377c-0.009,0-0.018,0-0.026,0c-0.106-0.826-0.165-1.749-0.077-1.83
				c0.026-0.012,0.099-0.033,0.295-0.033c0.292,0,0.665,0.045,0.675,0.046c0.083,0,0.164-0.091,0.207-0.181
				c0.066-0.137,0.059-0.278-0.02-0.378c-0.134-0.169-0.447-0.692-0.423-0.896C35.801,25.083,35.807,25.068,35.818,25.06z"/>
			<path fill="#9CA69C" d="M33.847,20.246c0.05-0.142,0.102-0.289,0.144-0.437l-0.093-0.052c-0.004,0.004-0.403,0.447-0.713,1.048
				c-0.414,0.803-0.48,1.525-0.194,2.086l0.072,0.141l0.03-0.155c0.016-0.083,0.022-0.152,0.026-0.203
				c0.051,0.039,0.113,0.082,0.141,0.082l0.032-0.001l0.031-0.056l-0.008-0.015c-0.001-0.062-0.023-0.147-0.043-0.213l0.237,0.059
				l-0.134-0.248l0.287,0.034l-0.031-0.084c-0.027-0.072-0.055-0.157-0.068-0.208c0.054,0.004,0.133,0.01,0.19,0.015l0.102,0.009
				l-0.05-0.089C33.462,21.338,33.649,20.808,33.847,20.246z"/>
			<path fill="#9CA69C" d="M34.515,18.255l-0.098-0.06l0.016,0.114c0.001,0.006,0.075,0.564-0.221,0.722
				c-0.01,0.007-0.026,0.015-0.045,0.025c-0.083,0.043-0.238,0.123-0.204,0.259c0.026,0.116,0.084,0.172,0.178,0.172
				c0.04,0,0.083-0.01,0.128-0.021l0.015-0.004c0.221-0.039,0.445-0.306,0.499-0.596C34.832,18.608,34.736,18.39,34.515,18.255z"/>
			<g>
				<circle fill="#FFFFFF" cx="33.782" cy="18.82" r="0.128"/>
			</g>
			<g>
				<path fill="#D90000" d="M33.394,19.319c-0.084,0.068-0.524,0.524-0.091,0.691c0.448-0.121,0.326-0.205,0.425-0.304
					C33.73,19.501,33.505,19.448,33.394,19.319z"/>
				<path d="M33.3,20.067l-0.017-0.006c-0.128-0.05-0.202-0.128-0.219-0.233c-0.041-0.258,0.292-0.548,0.295-0.551l0.041-0.034
					l0.035,0.04c0.033,0.038,0.078,0.069,0.126,0.103c0.104,0.073,0.223,0.155,0.221,0.32l0,0.022l-0.016,0.016
					c-0.019,0.019-0.026,0.037-0.036,0.062c-0.037,0.094-0.089,0.168-0.413,0.256L33.3,20.067z M33.392,19.394
					c-0.09,0.088-0.242,0.278-0.22,0.416c0.01,0.061,0.054,0.107,0.134,0.141c0.28-0.078,0.302-0.133,0.323-0.186
					c0.009-0.023,0.02-0.051,0.044-0.08c-0.008-0.095-0.085-0.149-0.173-0.21C33.463,19.45,33.425,19.424,33.392,19.394z"/>
			</g>
			<path fill="#9CA69C" d="M34.394,23.589l-0.07-0.095l-0.031,0.133c-0.031,0.131-0.114,0.479,0.024,0.761l0.022,0.046l0.048-0.02
				c0.164-0.069,0.296-0.102,0.404-0.102c0.11,0,0.18,0.036,0.228,0.067l0.064-0.088C34.776,24.046,34.657,23.943,34.394,23.589z"/>
			<g>
				<path fill="#FFFFFF" d="M35.002,25.344l0.023,0.85c0,0,0.296,0.053,0.433,0C35.594,26.141,35.45,25.602,35.002,25.344z"/>
				<path fill="#FFFFFF" d="M35.285,26.272L35.285,26.272c-0.131,0-0.264-0.024-0.269-0.025l-0.044-0.008l-0.027-0.992l0.084,0.049
					c0.371,0.214,0.547,0.608,0.531,0.81c-0.007,0.095-0.055,0.127-0.083,0.138C35.431,26.263,35.366,26.272,35.285,26.272z
					 M35.079,26.147c0.048,0.007,0.128,0.016,0.206,0.016l0,0c0.084,0,0.13-0.011,0.153-0.02c0.004-0.001,0.012-0.014,0.014-0.045
					c0.01-0.136-0.113-0.45-0.392-0.652L35.079,26.147z"/>
			</g>
			<g>
				<path fill="#9CA69C" d="M37.15,25.45c0,0-0.546-1.32-1.943-1.654c-1.396-0.334-1.214-1.821-1.1-1.912
					c0.061-0.129,0.106-0.326,0.508-0.137c0.402,0.19,2.254,1.123,2.519,1.169C37.4,22.961,37.173,25.481,37.15,25.45z"/>
				<path d="M37.15,25.505h-0.027L37.1,25.471c-0.005-0.013-0.553-1.299-1.905-1.622c-0.799-0.191-1.08-0.736-1.175-1.16
					c-0.084-0.377-0.035-0.744,0.041-0.836l0.011-0.023c0.038-0.086,0.096-0.216,0.27-0.216c0.08,0,0.178,0.027,0.297,0.084
					c0.093,0.044,0.262,0.127,0.471,0.229c0.642,0.315,1.837,0.901,2.034,0.935c0.132,0.023,0.258,0.418,0.109,2.174
					C37.213,25.505,37.209,25.505,37.15,25.505z M34.342,21.723c-0.099,0-0.129,0.057-0.17,0.151l-0.02,0.044l-0.01,0.008
					c-0.035,0.04-0.118,0.439,0.024,0.88c0.109,0.338,0.38,0.775,1.055,0.936c1.113,0.266,1.701,1.159,1.901,1.526
					c0.023-0.223,0.058-0.643,0.076-1.079c0.046-1.115-0.062-1.214-0.074-1.222c-0.193-0.033-1.124-0.484-2.061-0.944
					c-0.209-0.102-0.377-0.185-0.47-0.229C34.489,21.748,34.405,21.723,34.342,21.723z"/>
			</g>
			<g>
				<path fill="#D90000" d="M35.822,23.788c-0.023,0.015,1.867,1.115,1.298,2.064c0.539-0.357,0.364-0.979,0.364-0.979
					s0.44,1.146-0.63,1.707c0.114,0.099,0.19,0.076,0.19,0.076l-0.182,0.182c0,0-0.084,0.137,0.637-0.212
					c-0.197,0.159-0.212,0.273-0.212,0.273s0.053,0.152,0.524-0.258c-0.379,0.41-0.463,0.622-0.463,0.615
					c1.024-0.091,3.255-3.422-0.706-4.409c0.213,0.22,0.182,0.19,0.182,0.19L35.822,23.788z"/>
				<path d="M37.228,27.322l0.069-0.089l0.007-0.027l0.01-0.001c0.043-0.079,0.101-0.168,0.173-0.264
					c-0.056,0.027-0.103,0.04-0.143,0.04c-0.064,0-0.098-0.035-0.108-0.064l-0.004-0.012l0.002-0.013
					c0.001-0.007,0.007-0.044,0.042-0.101c-0.195,0.086-0.322,0.128-0.386,0.128c-0.045,0-0.066-0.02-0.076-0.038
					c-0.015-0.026-0.008-0.054,0.002-0.072l0.008-0.01l0.107-0.107c-0.033-0.014-0.07-0.036-0.111-0.071l-0.06-0.052l0.071-0.037
					c0.573-0.301,0.697-0.77,0.694-1.13c-0.051,0.172-0.159,0.354-0.372,0.495l-0.077-0.074c0.213-0.356,0.178-0.98-1.201-1.931
					c-0.099-0.068-0.105-0.072-0.104-0.105l0-0.029l0.024-0.016l0.95-0.713c-0.027-0.028-0.07-0.073-0.14-0.145l-0.132-0.137
					l0.185,0.046c0.909,0.226,2.416,0.832,2.298,2.344c-0.086,1.112-1.005,2.093-1.577,2.169l-0.002,0.003l-0.027,0L37.228,27.322z
					 M37.774,26.6l0.076,0.078c-0.17,0.184-0.308,0.358-0.397,0.501c0.528-0.156,1.315-1.063,1.391-2.05
					c0.056-0.726-0.257-1.682-2.029-2.181c0.007,0.008,0.014,0.015,0.02,0.022l0.027,0.027l-0.002,0.002
					c0.026,0.033,0.023,0.042,0.015,0.059l-0.014,0.033H36.84l-0.927,0.696c0.007,0.004,0.013,0.009,0.021,0.014
					c1.018,0.702,1.463,1.325,1.327,1.855c0.289-0.331,0.172-0.765,0.171-0.77l0.103-0.034c0.004,0.012,0.424,1.141-0.578,1.732
					c0.032,0.016,0.054,0.018,0.065,0.018l0.06,0.091l-0.091,0.091c0.085-0.028,0.232-0.087,0.484-0.209l0.058,0.092
					c-0.111,0.09-0.159,0.162-0.179,0.203C37.4,26.866,37.517,26.825,37.774,26.6z"/>
			</g>
			<g>
				<path fill="#FFFFFF" d="M35.905,23.462c0.258,0.182,0.349,0.243,0.379,0.334c-0.235-0.053-0.448-0.038-0.448-0.038
					s-0.508-0.486-0.599-0.524c-0.068,0-0.463-0.25-0.463-0.25c-0.197-0.099-0.379-0.782,0.349-0.584
					c0.751,0.357,0.857,0.387,0.857,0.387c0.298,0.094,0.597,0.187,0.895,0.281c0.172,0.192,0.344,0.384,0.516,0.577
					c0,0-0.918-0.455-1.032-0.463c0.25,0.205,0.395,0.486,0.395,0.486C36.464,23.583,36.212,23.507,35.905,23.462z"/>
				<path d="M36.367,23.87l-0.094-0.021c-0.141-0.032-0.274-0.038-0.361-0.038c-0.044,0-0.07,0.002-0.071,0.002l-0.024,0.002
					l-0.017-0.017c-0.24-0.229-0.516-0.477-0.578-0.51c-0.09-0.019-0.333-0.166-0.476-0.257c-0.121-0.06-0.236-0.301-0.191-0.492
					c0.02-0.086,0.091-0.229,0.337-0.229c0.072,0,0.155,0.013,0.247,0.038c0.734,0.347,0.854,0.386,0.859,0.388l0.91,0.285
					l0.526,0.588l-0.065,0.085c-0.282-0.14-0.586-0.284-0.788-0.372c0.14,0.162,0.218,0.312,0.223,0.321l0.058,0.112l-0.181-0.052
					c-0.19-0.055-0.362-0.104-0.545-0.143c0.121,0.09,0.176,0.144,0.201,0.219L36.367,23.87z M35.912,23.701
					c0.064,0,0.151,0.003,0.249,0.017c-0.05-0.045-0.13-0.101-0.252-0.187l-0.035-0.025l0.039-0.098
					c0.262,0.039,0.481,0.098,0.724,0.168c-0.064-0.097-0.171-0.238-0.311-0.353l-0.132-0.108l0.17,0.012
					c0.085,0.006,0.511,0.205,0.801,0.346l-0.32-0.357l-0.881-0.276c-0.003-0.001-0.118-0.035-0.865-0.39
					c-0.073-0.019-0.147-0.03-0.209-0.03c-0.13,0-0.208,0.049-0.231,0.145c-0.034,0.144,0.062,0.334,0.138,0.372
					c0.181,0.115,0.398,0.239,0.441,0.245l0.019,0.004c0.091,0.038,0.484,0.409,0.599,0.518
					C35.871,23.702,35.89,23.701,35.912,23.701z"/>
			</g>
			<g>
				<path d="M32.331,19.387c0,0,0.88-0.212,0.986-0.182"/>
				<path fill="#FFFFFF" d="M32.344,19.44l-0.026-0.106c0.21-0.051,0.903-0.214,1.014-0.182l-0.03,0.105
					C33.239,19.244,32.764,19.339,32.344,19.44z"/>
			</g>
		</g>
	</g>
</g>
</svg>
